<?xml version="1.0" standalone="no"?>
<!DOCTYPE svg PUBLIC "-//W3C//DTD SVG 20010904//EN"
 "http://www.w3.org/TR/2001/REC-SVG-20010904/DTD/svg10.dtd">
<svg version="1.0" xmlns="http://www.w3.org/2000/svg"
 width="382.000000pt" height="121.000000pt" viewBox="20 0 400.000000 60.000000"
 preserveAspectRatio="xMidYMid meet">
<metadata>
Created by potrace 1.16, written by Peter Selinger 2001-2019
</metadata>
<g transform="translate(0.000000,121.000000) scale(0.100000,-0.100000)"
fill="#000000" stroke="none">
<path d="M923 996 c-82 -26 -146 -82 -174 -153 -12 -29 -79 -281 -79 -295 0
-4 34 -8 75 -8 73 0 76 1 86 27 15 40 38 62 89 88 45 22 170 58 178 51 3 -4
-18 -97 -34 -148 -5 -16 3 -18 74 -18 l80 0 11 48 c6 26 33 131 59 235 l49
187 -186 -1 c-123 0 -200 -5 -228 -13z m237 -53 c0 -5 -10 -49 -22 -100 -23
-92 -23 -92 -58 -98 -55 -9 -205 -23 -208 -20 -2 2 6 36 19 76 24 77 69 134
111 142 40 8 158 7 158 0z"/>
<path d="M1465 990 c-14 -15 -124 -406 -125 -443 0 -4 35 -7 77 -5 l77 3 54
210 c37 144 60 217 75 233 l20 22 -80 0 c-67 0 -83 -3 -98 -20z"/>
<path d="M1775 1001 c-34 -15 -57 -49 -62 -94 -7 -58 14 -81 171 -187 69 -47
125 -91 126 -97 0 -10 -42 -13 -177 -13 -98 0 -183 -4 -190 -8 -6 -4 -16 -20
-22 -35 l-11 -27 240 0 240 0 31 28 c24 21 32 39 36 74 5 42 2 49 -28 82 -19
20 -86 71 -149 114 -63 43 -116 85 -118 94 -3 15 16 17 168 20 156 3 173 5
186 22 8 11 14 23 14 28 0 10 -429 9 -455 -1z"/>
<path d="M2379 1000 c-9 -5 -21 -22 -27 -37 -10 -24 -112 -411 -112 -424 0 -2
35 -3 78 -1 l79 3 13 52 c73 293 100 383 120 399 22 18 20 18 -56 18 -44 0
-86 -5 -95 -10z"/>
<path d="M2637 1003 c-3 -5 -21 -73 -42 -153 -20 -80 -45 -179 -56 -220 -10
-41 -19 -78 -19 -82 0 -5 34 -8 75 -8 l74 0 11 38 c6 20 30 111 54 202 l43
165 81 3 c76 3 84 1 107 -22 14 -14 25 -35 25 -47 0 -21 -64 -290 -76 -324 -5
-13 6 -15 73 -15 l80 0 38 150 c44 174 44 224 0 270 -15 15 -46 33 -70 39 -49
12 -391 15 -398 4z"/>
<path d="M710 340 c-18 -4 -26 -14 -28 -32 -3 -21 3 -30 28 -43 36 -19 35 -39
-3 -43 -38 -5 -33 -22 6 -22 61 0 78 49 27 78 -36 21 -39 42 -5 42 26 0 34 15
13 22 -7 3 -24 2 -38 -2z"/>
<path d="M1500 338 c-32 -12 -40 -25 -40 -69 0 -43 25 -69 67 -69 49 0 75 44
60 102 -8 32 -51 49 -87 36z m58 -59 c4 -43 -20 -69 -46 -52 -20 12 -26 36
-18 69 5 20 12 25 34 22 23 -3 27 -8 30 -39z"/>
<path d="M1933 339 c-42 -16 -41 -57 2 -77 36 -16 32 -42 -5 -42 -16 0 -30 -4
-30 -10 0 -11 49 -14 74 -4 9 4 16 18 16 35 0 21 -7 31 -27 41 -35 17 -35 32
0 36 15 2 27 7 27 11 0 13 -33 19 -57 10z"/>
<path d="M2748 335 c-43 -24 -46 -99 -4 -127 21 -14 66 -8 86 12 58 58 -11
153 -82 115z m68 -39 c8 -33 2 -57 -17 -69 -29 -18 -49 -1 -49 41 0 45 5 52
36 52 17 0 25 -7 30 -24z"/>
<path d="M3113 340 c-26 -11 -43 -40 -43 -74 0 -58 78 -88 120 -46 53 53 -8
147 -77 120z m59 -45 c15 -33 -3 -75 -32 -75 -29 0 -47 42 -32 75 7 15 20 25
32 25 12 0 25 -10 32 -25z"/>
<path d="M138 290 c-1 -27 -2 -58 -2 -67 -1 -10 7 -19 17 -21 12 -3 17 3 17
20 0 18 8 26 33 33 22 7 33 17 35 33 5 34 -15 52 -59 52 l-39 0 -2 -50z m67 5
c0 -11 -8 -21 -17 -23 -14 -3 -18 3 -18 23 0 20 4 26 18 23 9 -2 17 -12 17
-23z"/>
<path d="M260 330 c0 -5 9 -10 20 -10 18 0 20 -7 20 -60 0 -47 3 -60 15 -60
12 0 15 13 15 60 0 57 1 60 25 60 14 0 25 5 25 10 0 6 -27 10 -60 10 -33 0
-60 -4 -60 -10z"/>
<path d="M489 313 c-17 -43 -39 -105 -39 -109 0 -14 30 0 35 16 5 14 15 20 37
20 21 0 31 -6 35 -20 3 -11 12 -20 20 -20 16 0 14 11 -17 90 -22 56 -54 66
-71 23z m41 -12 c0 -5 3 -16 6 -25 4 -12 0 -16 -15 -16 -22 0 -25 8 -15 34 7
17 24 22 24 7z"/>
<path d="M610 270 c0 -56 3 -70 15 -70 12 0 15 14 15 70 0 56 -3 70 -15 70
-12 0 -15 -14 -15 -70z"/>
<path d="M800 270 c0 -56 3 -70 15 -70 12 0 15 14 15 70 0 56 -3 70 -15 70
-12 0 -15 -14 -15 -70z"/>
<path d="M870 270 c0 -81 17 -95 22 -17 l4 52 23 -52 c19 -42 28 -53 47 -53
23 0 24 3 24 70 0 56 -3 70 -15 70 -11 0 -15 -13 -16 -52 l0 -53 -24 53 c-18
38 -29 52 -44 52 -19 0 -21 -6 -21 -70z"/>
<path d="M1090 270 c0 -40 4 -70 10 -70 6 0 10 30 10 70 0 40 -4 70 -10 70 -6
0 -10 -30 -10 -70z"/>
<path d="M1150 270 c0 -56 3 -70 15 -70 11 0 15 13 16 53 l1 52 24 -52 c19
-44 28 -53 49 -53 24 0 25 2 25 70 0 54 -3 70 -14 70 -11 0 -16 -15 -18 -52
l-3 -53 -24 53 c-19 41 -28 52 -47 52 -23 0 -24 -3 -24 -70z"/>
<path d="M1310 270 l0 -70 38 0 c55 0 82 23 82 70 0 51 -20 70 -76 70 l-44 0
0 -70z m78 38 c17 -17 15 -63 -3 -78 -27 -22 -45 -4 -45 45 0 37 3 45 18 45
10 0 23 -5 30 -12z"/>
<path d="M1620 270 c0 -56 3 -70 15 -70 11 0 15 13 16 53 l1 52 24 -52 c18
-37 31 -53 45 -53 22 0 21 -4 23 78 1 44 -2 62 -11 62 -9 0 -13 -17 -14 -52
l0 -53 -27 53 c-20 40 -31 52 -49 52 -22 0 -23 -4 -23 -70z"/>
<path d="M1780 270 l0 -70 50 0 c28 0 50 5 50 10 0 6 -16 10 -35 10 -28 0 -35
4 -35 20 0 16 7 20 30 20 17 0 30 5 30 10 0 6 -13 10 -30 10 -23 0 -30 4 -30
20 0 16 7 20 30 20 17 0 30 5 30 10 0 6 -20 10 -45 10 l-45 0 0 -70z"/>
<path d="M2030 270 c0 -38 4 -70 9 -70 14 0 16 14 13 80 -5 83 -22 76 -22 -10z"/>
<path d="M2127 333 c-8 -13 -47 -117 -47 -125 0 -17 28 -7 33 12 4 14 14 20
35 20 22 0 32 -6 37 -20 6 -19 35 -29 35 -12 0 4 -11 34 -24 67 -17 41 -31 61
-44 63 -11 2 -22 -1 -25 -5z m33 -32 c0 -5 3 -16 6 -25 4 -12 0 -16 -15 -16
-22 0 -25 8 -15 34 7 17 24 22 24 7z"/>
<path d="M2330 335 c0 -2 -11 -34 -25 -70 -20 -55 -22 -65 -9 -65 9 0 18 9 21
20 4 15 14 20 38 20 24 0 34 -5 38 -20 3 -11 12 -20 21 -20 14 0 12 10 -9 66
-14 37 -25 68 -25 70 0 2 -11 4 -25 4 -14 0 -25 -2 -25 -5z m39 -45 c9 -28 8
-30 -14 -30 -22 0 -23 2 -14 30 6 17 12 30 14 30 2 0 8 -13 14 -30z"/>
<path d="M2440 287 c0 -61 19 -87 63 -87 41 0 57 24 57 86 0 40 -4 54 -15 54
-10 0 -15 -15 -17 -57 -2 -47 -6 -58 -22 -61 -26 -5 -36 15 -36 71 0 35 -4 47
-15 47 -11 0 -15 -13 -15 -53z"/>
<path d="M2580 331 c0 -5 10 -11 23 -13 19 -3 22 -10 25 -60 2 -43 7 -58 17
-58 12 0 15 14 15 60 0 53 2 60 20 60 11 0 20 5 20 10 0 6 -27 10 -60 10 -33
0 -60 -4 -60 -9z"/>
<path d="M2880 270 c0 -40 4 -70 10 -70 6 0 10 26 11 58 0 56 1 56 14 27 7
-16 18 -42 24 -57 16 -41 35 -34 50 17 19 63 31 65 31 6 0 -28 5 -51 10 -51 6
0 10 30 10 71 0 67 -1 70 -22 67 -15 -2 -25 -15 -36 -45 -7 -24 -17 -43 -22
-43 -4 0 -13 20 -20 45 -10 37 -17 45 -36 45 -23 0 -24 -3 -24 -70z"/>
<path d="M3220 331 c0 -5 10 -11 23 -13 20 -3 22 -9 23 -57 1 -76 22 -79 26
-4 3 51 6 58 26 61 46 7 20 22 -38 22 -33 0 -60 -4 -60 -9z"/>
<path d="M3360 270 c0 -56 3 -70 15 -70 12 0 15 14 15 70 0 56 -3 70 -15 70
-12 0 -15 -14 -15 -70z"/>
<path d="M3420 332 c0 -4 10 -35 23 -67 32 -82 54 -82 84 0 26 73 27 75 9 75
-8 0 -21 -21 -31 -50 -9 -27 -18 -50 -20 -50 -2 0 -11 23 -20 50 -10 29 -23
50 -31 50 -8 0 -14 -4 -14 -8z"/>
<path d="M3580 270 l0 -70 45 0 c52 0 61 17 13 22 -46 4 -53 38 -9 38 38 0 41
18 4 22 -40 4 -36 32 5 36 48 5 39 22 -13 22 l-45 0 0 -70z"/>
<path d="M370 210 c0 -5 7 -10 15 -10 8 0 15 5 15 10 0 6 -7 10 -15 10 -8 0
-15 -4 -15 -10z"/>
</g>
</svg>
