<?xml version="1.0" standalone="no"?>
<!DOCTYPE svg PUBLIC "-//W3C//DTD SVG 20010904//EN"
 "http://www.w3.org/TR/2001/REC-SVG-20010904/DTD/svg10.dtd">
<svg version="1.0" xmlns="http://www.w3.org/2000/svg"
 width="150.000000pt" height="150.000000pt" viewBox="50 35 60.000000 60.000000"
 preserveAspectRatio="xMidYMid meet">

<g transform="translate(0.000000,150.000000) scale(0.100000,-0.100000)"
fill="#000000" stroke="none">
<path d="M171 862 c-49 -24 -68 -55 -95 -154 l-24 -88 42 0 c35 0 45 4 53 23
12 26 66 56 118 64 l34 6 -9 -34 c-16 -56 -14 -60 32 -57 l42 3 23 90 c13 50
27 107 32 128 l9 37 -112 0 c-86 0 -119 -4 -145 -18z m154 -48 c-14 -76 -18
-80 -86 -88 -34 -3 -65 -4 -67 -1 -3 3 0 23 7 44 16 54 52 81 108 81 l45 0 -7
-36z"/>
<path d="M502 867 c-6 -7 -24 -65 -40 -130 l-30 -117 43 0 43 0 21 83 c12 45
28 103 35 130 l14 47 -38 0 c-21 0 -42 -6 -48 -13z"/>
<path d="M654 855 c-28 -43 -12 -70 76 -128 44 -28 78 -56 76 -62 -1 -5 -49
-12 -106 -15 -70 -3 -105 -9 -108 -17 -3 -10 27 -13 130 -13 73 0 138 4 144 8
22 14 34 50 25 74 -5 13 -45 47 -89 77 -45 30 -79 58 -76 63 3 4 43 8 89 8 86
0 115 5 115 21 0 5 -58 9 -130 9 -127 0 -130 0 -146 -25z"/>
<path d="M1012 867 c-6 -7 -24 -65 -40 -130 l-30 -117 43 0 43 0 21 83 c12 45
28 103 35 130 l14 47 -38 0 c-21 0 -42 -6 -48 -13z"/>
<path d="M1136 768 c-16 -62 -31 -121 -34 -130 -4 -15 3 -18 40 -18 l44 0 28
115 28 115 43 0 c24 0 50 -3 59 -6 20 -8 21 -62 2 -124 -31 -105 -32 -100 18
-100 l44 0 23 94 c36 149 20 166 -159 166 l-107 0 -29 -112z"/>
</g>
</svg>
