<svg width="4275" height="4611" viewBox="0 0 4275 4611" fill="none" xmlns="http://www.w3.org/2000/svg">
<g clip-path="url(#clip0_1512_211)">
<rect width="4275" height="4611" fill="white"/>
<path d="M2136 4121C1892.67 4121 1666 4073.5 1456 3978.5C1247.67 3883.5 1065.17 3752.67 908.5 3586C753.5 3417.67 632.667 3223.5 546 3003.5C459.333 2783.5 416 2549.33 416 2301C416 2034.33 463.5 1791 558.5 1571C653.5 1351 782.667 1161 946 1001C1109.33 839.333 1294.33 715.167 1501 628.5C1709.33 540.167 1926 496 2151 496C2397.67 496 2639.33 553.5 2876 668.5C3112.67 783.5 3324.33 966 3511 1216L2896 1546C2789.33 1422.67 2670.17 1331 2538.5 1271C2408.5 1211 2276 1181 2141 1181C2006 1181 1876 1208.5 1751 1263.5C1627.67 1318.5 1517.67 1396.83 1421 1498.5C1324.33 1600.17 1247.67 1720.17 1191 1858.5C1134.33 1996.83 1106 2149.33 1106 2316C1106 2471 1132.67 2616 1186 2751C1241 2886 1316 3004.33 1411 3106C1506 3207.67 1616 3287.67 1741 3346C1867.67 3402.67 2002.67 3431 2146 3431C2234.33 3431 2321 3418.5 2406 3393.5C2492.67 3366.83 2575.17 3328.5 2653.5 3278.5C2731.83 3228.5 2803.5 3166 2868.5 3091C2935.17 3016 2993.5 2929.33 3043.5 2831H2501V2231H3856C3866 2489.33 3828.5 2732.67 3743.5 2961C3658.5 3189.33 3536.83 3391 3378.5 3566C3220.17 3739.33 3035.17 3875.17 2823.5 3973.5C2611.83 4071.83 2382.67 4121 2136 4121Z" fill="url(#paint0_linear_1512_211)"/>
</g>
<defs>
<linearGradient id="paint0_linear_1512_211" x1="2137.5" y1="-694" x2="2137.5" y2="5306" gradientUnits="userSpaceOnUse">
<stop stop-color="#72BBFF"/>
<stop offset="1" stop-color="#9F72FF"/>
</linearGradient>
<clipPath id="clip0_1512_211">
<rect width="4275" height="4611" fill="white"/>
</clipPath>
</defs>
</svg>
